<svg xmlns="http://www.w3.org/2000/svg" viewBox="0 0 512 512"><circle cx="256" cy="256" r="234.667" style="fill:#0784ff"/><path d="m201.435 401.396 30.688-40.638a35.124 35.124 0 0 1 50.9-13.517 35.124 35.124 0 0 1 8.615 50.3L256 435.118a32.202 32.202 0 0 1-48.532 3.45 32.202 32.202 0 0 1-6.033-37.172z" style="fill:#005eee"/><rect x="53.333" y="294.248" width="60.34" height="90.51" rx="30.17" ry="30.17" transform="rotate(-45 83.503 339.503)" style="fill:#005eee"/><path d="M149.861 181.333a60.64 60.64 0 0 1 79.553 5.415l30.158 30.158a60.64 60.64 0 0 1 17.761 42.879v81.548A42.667 42.667 0 0 0 320 384a42.667 42.667 0 0 0 42.667-42.667V64h-192l-74.139 64a37.712 37.712 0 0 0 5.748 58.045 37.712 37.712 0 0 0 47.585-4.712z" style="fill:#005eee"/><path d="M256 106.667H255.422l-.052.001H255.254l-.073.001H255.022l-.086.001h-.026l-.1.001h-.019l-.118.002h-.158l-.073.002h-.113l-.05.001-.069.001h-.048l-.063.001-.055.001-.064.001h-.05l-.067.002h-.048l-.076.002h-.038l-.08.001-.038.001-.232.004h-.027l-.089.002h-.036l-.078.002h-.044l-.075.002-.038.001-.077.002h-.043l-.074.002h-.041l-.072.003h-.047l-.074.002-.039.001-.084.002h-.033l-.095.003h-.021l-.112.003-.047.002-.073.002h-.036l-.079.003h-.042l-.075.003-.042.001-.07.002-.049.001-.07.002-.046.002-.068.002-.047.001-.07.002-.047.002-.063.002-.053.002-.068.002-.047.001-.104.004-.04.001-.083.003-.043.001-.073.003-.05.002-.062.002-.055.002-.061.002-.056.002-.058.002-.054.002-.062.003-.055.002-.059.002-.055.002-.066.003-.047.001-.086.004h-.026l-.09.005h-.03l-.113.006h-.023l-.091.004-.043.002-.071.004-.054.002-.056.002-.062.003-.055.002-.056.003-.06.003-.051.002-.068.003-.049.002-.063.003-.052.003-.06.003-.057.002-.054.003-.059.003-.047.002-.14.007-.035.002-.067.004-.048.002-.058.003-.058.003-.058.003-.054.003-.06.003-.053.003-.064.003-.05.003-.06.003-.057.003-.059.004-.056.003-.056.003-.06.003-.055.003-.104.007h-.007l-.114.006-.037.003-.079.004-.047.003-.063.004-.057.003-.058.004-.057.004-.055.003-.058.003-.057.004-.059.004-.051.003-.063.004-.052.003-.063.004-.048.003-.063.004-.054.004-.06.004-.05.003-.122.008-.05.003-.063.005-.05.003-.065.005-.048.003-.06.004-.056.004-.061.004-.049.004-.062.004-.053.004-.062.004-.051.004-.06.004-.055.004-.06.005-.047.003-.066.005-.037.002-.154.012-.03.002-.083.007-.026.002-.08.005-.034.003-.075.006-.037.003-.07.005-.046.004-.064.005-.05.004-.063.005-.052.004-.059.005-.057.004-.055.005-.058.004-.058.005-.036.003-.248.02-.049.005-.067.006-.043.003-.068.006-.045.004-.065.005-.052.005-.055.005-.058.004-.06.006-.049.004-.063.006-.049.004-.065.006-.05.004-.06.006-.067.005-.044.005c-.079.006-.146.013-.225.02l-.036.003-.082.008-.03.002-.08.008-.046.005-.065.005-.057.006-.052.005-.06.006-.055.005-.058.005-.055.006-.056.005-.062.006-.05.005-.063.006-.051.005-.062.006-.051.005-.03.003-.155.016-.034.003-.074.008-.037.004-.07.007-.044.004-.063.006-.05.006-.062.006-.05.005-.06.007-.054.005-.06.006-.051.006-.06.006-.049.005-.067.007-.036.004-.074.008-.02.002-.188.02-.008.002-.071.007-.042.005-.062.007-.052.005-.06.007-.05.006-.065.007-.048.005-.062.007-.05.006-.062.007-.05.005-.063.007-.042.005-.071.008-.043.005-.065.008-.063.007-.049.006-.109.012-.062.008-.047.005-.062.007-.053.007-.054.006-.058.007-.055.007-.057.006-.057.007-.052.006-.062.008-.052.006-.056.007-.057.007-.058.007-.048.006-.064.008-.04.005-.271.033-.016.002-.076.01-.035.004-.073.01-.037.004-.069.01-.045.005-.065.008-.044.006-.067.008-.046.006-.064.009-.047.006-.064.008-.05.007-.06.007-.05.007-.062.008-.044.006-.15.02-.023.003-.066.009-.045.006-.06.008-.052.007-.06.008-.052.007-.058.008-.052.007-.062.008-.049.007-.06.009-.049.006-.065.01-.05.006-.056.008-.056.008-.06.008-.04.006-.07.01-.014.002-.169.024-.032.004-.071.01-.038.006-.068.01-.046.006-.06.009-.05.007-.061.009-.05.007-.065.01-.038.005-.075.011-.034.005-.075.011-.032.005-.078.011-.028.005-.365.054-.04.006-.07.01-.039.006-.076.012-.03.005-.079.012-.033.005-.07.01-.04.007-.073.011-.034.005-.075.012-.032.005-.08.012-.024.004-.081.013-.035.005-.362.058-.038.006-.064.01-.044.007-.067.01-.045.008-.064.01-.044.007-.065.011-.049.008-.062.01-.04.007-.072.012-.035.005-.075.012-.026.005-.37.061-.034.006-.066.011-.044.008-.067.011-.043.007-.062.01-.048.009-.066.011-.04.007-.07.012-.036.006-.077.013-.025.005-.081.014-.03.005-.08.014-.012.002-.405.071h-.005l-.087.016-.024.005-.088.015-.016.003-.086.016-.025.004-.082.014-.026.005-.079.015-.031.005-.079.015-.022.003-.087.016-.009.002-.403.074-.01.002-.08.015-.03.005-.069.013-.042.008-.07.013-.035.006-.076.015-.029.005-.081.016-.024.004-.083.015-.024.005-.086.017h-.005c-.174.033-.34.065-.514.1h-.006a8.528 8.528 0 0 1-.097.02h-.008l-.09.018-.02.004-.086.017-.02.004-.086.017-.02.004-.09.017-.01.002-.095.02h-.008l-.822.167h-.008l-.205.043-.829.173h-.002l-.102.022h-.002l-.097.021-.012.003-.095.02-.006.001-.099.022h-.004l-.825.18-.103.023h-.001l-.096.022-.014.003A149.482 149.482 0 0 0 108.16 234.802a42.667 42.667 0 1 0 84.484 12.006A64.207 64.207 0 0 1 256 192a64.244 64.244 0 0 1 17.975 2.535 42.667 42.667 0 0 0 23.864-81.928q-1.942-.566-3.905-1.08l-.01-.003-.304-.078-.016-.005-.141-.036-.01-.003-.154-.04h-.003l-.14-.036-.027-.007-.285-.073-.043-.01c-.037-.01-.073-.02-.11-.028l-.031-.008-.138-.035-.038-.01-.106-.026-.045-.012-.132-.032-.037-.01-.102-.025-.053-.013a8.953 8.953 0 0 0-.096-.024l-.047-.011-.128-.032-.055-.013-.083-.02-.06-.015a14.84 14.84 0 0 1-.115-.028l-.067-.017-.08-.019-.068-.017-.073-.017-.1-.025-.08-.018-.079-.02-.054-.012-.083-.02-.02-.005-.178-.042-.044-.01-.088-.021-.036-.009-.18-.042-.023-.005-.095-.023-.032-.007-.3-.07-.033-.007-.099-.023-.004-.001-.33-.076-.014-.003a149.017 149.017 0 0 0-17.055-2.849h-.002c-.274-.03-.542-.058-.817-.086l-.013-.001-.332-.034-.022-.002-.456-.045-.017-.002-.328-.03-.026-.003-.329-.031-.019-.002a10.84 10.84 0 0 1-.107-.01l-.017-.001-.327-.03-.032-.002-.32-.029-.026-.002-.102-.008-.029-.003-.206-.018h-.011l-.099-.009-.04-.003-.312-.026-.033-.002-.1-.008-.027-.002-.189-.015-.032-.003-.094-.007-.05-.004a89.08 89.08 0 0 0-.294-.023l-.053-.004-.086-.006-.052-.004-.157-.012-.05-.003-.089-.007-.048-.003-.174-.013-.035-.002-.084-.006-.06-.004-.084-.006-.063-.004-.135-.01-.064-.004-.081-.005-.067-.005-.114-.007-.084-.006-.078-.005-.07-.004-.073-.005a7.051 7.051 0 0 0-.088-.005l-.114-.008-.069-.004-.075-.004-.078-.005-.098-.006-.095-.006-.073-.004-.075-.004-.07-.005-.131-.007-.06-.003-.085-.005-.07-.004-.089-.005-.087-.005-.1-.005-.067-.004-.085-.004-.06-.004-.136-.007-.053-.002-.097-.005-.06-.003-.108-.006-.068-.003a12.503 12.503 0 0 0-.109-.005l-.055-.003-.101-.005-.05-.002a19.125 19.125 0 0 0-.138-.006l-.056-.003-.093-.004-.06-.003-.128-.005-.053-.003-.102-.004-.064-.003-.094-.004-.052-.002-.135-.006-.063-.002-.09-.003-.059-.003-.138-.005-.044-.002-.105-.004-.058-.002a11.053 11.053 0 0 1-.101-.004l-.05-.001-.137-.005-.054-.002-.102-.003-.05-.002a21.187 21.187 0 0 1-.142-.005l-.04-.001-.11-.004-.055-.001-.115-.004-.04-.001-.136-.004-.05-.002c-.036 0-.071-.002-.106-.003l-.05-.001-.14-.004-.048-.001-.106-.003-.048-.001-.14-.004h-.024a17.596 17.596 0 0 0-.131-.003l-.053-.002-.107-.002-.045-.001-.14-.003-.053-.001-.1-.002-.056-.001-.143-.003h-.024l-.123-.003-.054-.001-.112-.002h-.04c-.048-.002-.097-.002-.146-.003h-.04l-.117-.003h-.04l-.15-.002h-.028l-.127-.002h-.041l-.134-.002h-.019l-.15-.002h-.04l-.117-.002h-.044l-.147-.001h-.031l-.121-.001H257l-.139-.001h-.163l-.043-.001h-.154l-.15-.001H256z" style="fill:#5cbeff"/><path d="M445.29 245.39a42.68 42.68 0 0 0-42.027 35.612 149.374 149.374 0 0 1-241.977 90.461 42.667 42.667 0 0 0-54.247 65.871 233.936 233.936 0 0 0 89.611 45.763c.352.092.701.182 1.053.272h.004c.352.09.7.179 1.052.267h.004l.17.044.007.001.17.042.006.002c.352.088.695.172 1.048.258l.015.004.166.04.006.002.877.211.01.003.167.04.007.002.169.04.008.002.881.207h.003l.17.04.01.003.17.039.005.001.881.203.01.002.169.038.006.002 1.06.237.01.002.163.037.015.003.882.193.009.002.16.035.025.005.153.033.02.004.162.035.012.003.7.149.029.006.147.03.027.006.149.031.026.006.167.035h.003c.179.038.355.075.534.111l.006.002.163.033.03.006.142.03.037.007.146.03.022.004.88.178.02.004.153.03.028.006.151.03.022.004.708.14.01.001.165.032.018.004.156.03.024.005.159.03.015.003.712.136.009.002.162.03.025.005.154.029.022.004c.06.012.103.02.163.03l.01.003.712.132.018.003.157.028.025.005.149.027.03.006.708.127.01.002.168.03.013.002.161.029.022.004.162.028.013.002.175.031h.001l.541.095h.004l.17.03.023.004.153.026.025.004.153.027.025.004.712.12.013.002.163.027.023.004.146.025.04.006.142.024.031.005.163.026.01.002.537.088.017.002.156.026.034.005.142.023.034.005.146.024.031.004q.352.057.705.111l.037.006.142.022.035.006.14.021.038.006.144.022.032.006.158.024.017.002.354.054.034.005.142.022.039.006.133.02.052.007.126.02.046.006.143.021.03.004.356.053h.002l.175.026.025.003.149.022.037.005.144.021.032.005.145.02.035.006.16.022.012.002.362.051H223l.172.025.036.005.14.02.04.005.136.019.046.006.133.019.04.005.148.02.029.004.357.049.01.001.166.023.032.004.142.019.042.006.142.018.033.005.147.02.031.003.159.021.018.003.358.046.026.004.15.019.043.005.13.017.051.007.123.016.058.007.123.015.049.007.15.018.023.003.357.045.03.003.147.019.042.005.132.016.048.006.131.016.048.006.13.016.047.005.151.018.023.003.358.043.029.003.145.017.046.006.133.015.044.005.132.016.05.006.132.015.043.005.155.018.02.002.357.04.036.005.142.016.043.004.133.015.047.005.136.015.041.005.147.016.029.003.36.04.018.001.157.017.04.005.137.014.049.005.13.014.046.005.132.014.05.005.135.014.04.004.174.018h.002l.18.02.033.002.137.014.064.007.115.012.062.006.114.011.062.006.12.012.056.006.13.013.045.004.354.035.044.004.13.013.06.005.115.011.066.006.117.011.053.006.13.012.05.004.147.014.027.003.36.033.03.003.144.013.05.004.127.012.056.005.122.01.055.006.136.011.039.004.162.014.015.001.36.031.046.004.126.011.063.006.114.009.065.006.115.01.06.004.12.01.06.005.138.012.036.002.176.015.034.002.146.012.046.004.127.01.063.005.118.01.058.004.121.01.057.004.132.01.045.003.143.011.036.003.176.013.037.003.14.01.059.005.117.009.063.004.114.009.067.005.116.008.058.004.13.01.048.003.354.025.043.003.136.01.054.003.121.008.062.004.12.009.058.003.124.009.053.003.142.01.035.002.357.023.05.004.125.007.069.005.109.007.067.004.113.007.064.004.125.008.05.002.135.009.046.003.354.02.053.004.125.007.063.004.11.006.075.004.105.006.07.004.118.007.056.003.146.008.031.001.18.01.025.001.151.009.058.003.12.006.065.003.113.006.069.004.105.005.075.004.113.006.06.003.14.007.038.001.18.01h.022l.152.008.062.003.12.005.058.003.121.006.06.002.121.006.06.002.127.006.05.003.155.006.024.001.18.008.035.001.142.007.059.002.117.005.07.003.11.004.067.003.113.004.068.003.117.005.059.002.136.005.049.002.17.007.05.002.128.004.063.002.116.005.069.002.108.004.07.002.118.004.058.002.137.005.041.002.163.005.036.001.157.005.067.002.11.003.073.003.107.003.076.002.102.003.074.002.108.004.072.002.126.003.047.002.18.005h.025l.152.004.067.002.108.003c.027 0 .051 0 .078.002l.102.002.078.002.1.003.076.001.11.003.069.002.126.003h.05l.176.005h.05l.13.003.066.002.11.002.076.001.103.002.08.002.1.002.075.001.112.002.066.001.142.003h.034l.178.003.053.001.128.002.06.001.118.002h.07l.11.002.072.001.106.002h.073l.116.002.062.001.151.002h.026l.18.002h.044l.135.002h.067l.108.001h.076l.106.002h.075l.106.001h.071l.117.001h.063l.173.002h.003l.181.001h.181l.061.001h.187l.11.001H256.907l.072-.001h.112l.072-.001h.113l.066-.001h.126l.058-.001.178-.001h.037l.143-.002h.07l.111-.001h.074l.107-.002h.076l.106-.002h.075l.107-.002h.074l.11-.002h.073l.104-.002h.078l.118-.002.061-.001c.063 0 .115-.002.179-.003h.044l.137-.002.062-.001.117-.002.075-.001.105-.002.074-.001.11-.002.074-.001.103-.002.079-.002c.04 0 .061 0 .1-.002l.083-.001.103-.002.073-.002.138-.002.045-.001.175-.004.068-.002.111-.002.074-.002.11-.002.074-.002.102-.002.082-.002.097-.003.086-.002.09-.002.09-.002.094-.002.085-.003.102-.002.075-.003.175-.004.034-.001.148-.004.069-.002.108-.004.08-.002.1-.003.084-.002.095-.003.082-.003.1-.003.08-.003.103-.003.075-.002.115-.004.064-.002.167-.006h.008l.183-.006.046-.002.134-.004.067-.003.112-.004.072-.003.109-.004.078-.003.095-.003.087-.004.097-.003.078-.003.11-.005.067-.002.121-.005.06-.002.139-.006.04-.002.18-.007.037-.002.144-.006.054-.002.126-.006.062-.002.117-.006.067-.002.117-.006.06-.003.123-.005.06-.003.12-.005.062-.003.115-.006.067-.003.354-.017.07-.004c.03 0 .076-.003.108-.005l.08-.004.097-.005.081-.004.103-.005.074-.004.103-.005.079-.004.101-.006.077-.004.105-.005.073-.004.128-.007.05-.003.177-.01.04-.002.14-.008.059-.003.119-.007.072-.004.106-.006.074-.004.106-.006.074-.005.108-.006.069-.004.109-.007.074-.004.11-.007.066-.004.134-.008.045-.003.179-.011.036-.002.138-.01.077-.004.101-.006.078-.005.102-.007.074-.005.108-.007.072-.004.105-.008.073-.005.113-.007.064-.004.13-.009.047-.003.174-.012h.005l.18-.013.05-.004.128-.008.061-.005.117-.008.071-.005.106-.008.073-.005.107-.008.072-.005.111-.008.065-.005.118-.009.062-.004.128-.01.05-.004.148-.01.068-.006.14-.01.056-.005.12-.01.072-.005.107-.008.07-.006.108-.008.07-.006.114-.009.064-.005.111-.009.07-.006.112-.009.066-.005.13-.01.046-.005.18-.014.016-.002.16-.013.056-.005.122-.01.062-.005.116-.01.066-.006.115-.01.061-.005.117-.01.065-.006.118-.01.058-.006.122-.01.059-.005.151-.014.024-.002.181-.016.02-.002.16-.015.04-.003.134-.013.06-.005.12-.011.061-.006.116-.01.062-.006.12-.012.06-.005.113-.011.067-.007.122-.011.054-.005.353-.035.056-.005.12-.012.07-.007.107-.01.073-.007.103-.01.077-.008.1-.01.077-.008.098-.01.08-.008.106-.011.065-.007.129-.013.05-.005.352-.037.051-.005.129-.013.054-.006.12-.013.065-.007.113-.012.067-.007.108-.012.07-.007.112-.012.064-.007.123-.014.051-.005.151-.017.027-.003.18-.02.017-.002.158-.017.052-.006.124-.014.061-.007.117-.013.06-.007.117-.013.065-.008.112-.013.064-.007.116-.013.061-.008.134-.015.04-.004.166-.02.012-.002.18-.02.023-.004.151-.017.053-.007.124-.015.062-.007.109-.013.074-.01.103-.011.073-.01.107-.013.065-.007.122-.015.054-.007.135-.017.04-.005.357-.044.033-.004.14-.018.06-.008.113-.014.073-.009.103-.013.07-.01.108-.013.07-.009.108-.014.066-.008c.038-.006.076-.01.115-.015l.06-.009c.047-.005.107-.013.153-.02l.019-.002c.122-.016.237-.03.359-.047l.034-.005.136-.018.062-.008.117-.016.06-.008.114-.015.064-.009.116-.016.059-.007.123-.017.05-.007.143-.02.032-.004.177-.025.182-.025.008-.001.166-.023.048-.007.126-.018.057-.007.12-.017.058-.009.12-.017.053-.007.124-.018.057-.008.12-.017.054-.008.133-.02.043-.006.35-.05.047-.007.132-.02.044-.006.132-.02.049-.007.128-.019.053-.008.116-.017.064-.01.116-.017.059-.009.12-.018.054-.008.138-.021.037-.006.175-.027.016-.002.161-.025.036-.005.14-.022.048-.007.126-.02.056-.008.115-.018.067-.01.112-.018.058-.01.12-.018.057-.01.13-.02.042-.006.16-.025.014-.003.355-.057.035-.005.14-.023.045-.007c.045-.007.082-.014.127-.02l.057-.01.118-.02.06-.01.112-.017.064-.01.116-.02.057-.01.126-.02.048-.008.35-.058.023-.004.154-.026.035-.006.137-.023.053-.009.12-.02.058-.01.116-.02.06-.01.122-.021.048-.008.13-.022.047-.008.148-.026.024-.004.355-.062.016-.003.156-.027.045-.008.13-.023.05-.009.123-.021.054-.01.122-.021.055-.01.112-.02.066-.012.114-.02.057-.01.155-.029.014-.002.352-.064.036-.006.14-.026.039-.007.135-.025.047-.008.128-.024.048-.009.123-.023.056-.01.125-.023.045-.008.132-.025.044-.008.162-.03.01-.002.177-.034.013-.002.161-.03.038-.008.132-.025.058-.01.113-.022.066-.013.103-.02.072-.013.102-.02.07-.013.104-.02.067-.013.123-.024.046-.01.346-.067.04-.007.132-.026.06-.012.11-.022.067-.013.104-.02.072-.015.099-.02.07-.014.109-.021.06-.012.123-.024.048-.01.125-.025.051-.01.342-.07.046-.01.126-.025.062-.013.103-.02.078-.016.095-.02.073-.015.102-.021.065-.013.113-.024.06-.012.113-.023.059-.013.126-.026.045-.01.17-.035.037-.008.134-.028.06-.012.108-.023.071-.015.102-.022.065-.014.108-.022.067-.015.104-.022.066-.014.108-.023.064-.014.118-.025.05-.01.142-.031.03-.007.173-.037.028-.007.138-.03.062-.013.113-.025.058-.013.11-.023.067-.015.104-.023.067-.015.103-.023.068-.015.11-.024.06-.013.122-.027.047-.01.342-.077.048-.01c.037-.01.083-.02.12-.028l.063-.014.107-.024.068-.016.103-.023.065-.014.108-.025.063-.015.112-.025.056-.013.123-.028.047-.01.162-.038.005-.001.174-.04.03-.007.142-.033.048-.01c.037-.01.084-.02.12-.029l.058-.014.116-.026.058-.014.107-.025.067-.016.108-.025.06-.014.113-.027.056-.013.124-.029.047-.011.139-.033.031-.007.172-.041.015-.004.154-.037.049-.012.12-.028.058-.014.11-.026.067-.016.103-.026.061-.015c.037-.008.076-.017.112-.027l.06-.014.11-.027.06-.014.108-.026.065-.016.152-.037.012-.004.17-.041.04-.01.131-.032.052-.013.113-.028.064-.016.109-.027.061-.015c.03-.007.076-.02.106-.026l.065-.017.106-.026.064-.016.106-.027.062-.015.13-.032.036-.01.344-.086.02-.006.147-.037.048-.012.12-.03.057-.015.109-.028.065-.017.104-.026.064-.017.102-.026.07-.018.104-.027.06-.015.129-.033.04-.01c.11-.03.224-.059.334-.087l.061-.016.109-.029.06-.016.108-.028.062-.016.111-.03.055-.014.112-.03.06-.015.118-.031.046-.012.139-.037.029-.008.343-.091.01-.003.16-.043.034-.009.13-.035.057-.015.11-.03.06-.016.106-.029.066-.017.107-.03.056-.015.12-.033.047-.012.144-.04.022-.005.345-.095.009-.002.157-.043.04-.012.13-.035.042-.012.124-.035.049-.013.126-.035.04-.011.126-.035.047-.014.122-.033.047-.014.142-.04.024-.006.338-.095.045-.013.12-.034.058-.016.109-.031.065-.019.1-.028.067-.02.102-.029.064-.017.11-.032.054-.016.116-.033.053-.015.138-.04.026-.007.339-.098.035-.01.128-.038.054-.015.116-.034.05-.015.117-.034.052-.015.117-.034.052-.016.116-.034.051-.015.135-.04.029-.008.339-.1.02-.006.144-.043.05-.015.116-.035.055-.016.111-.033.06-.018.11-.033.053-.016.115-.034.052-.016.128-.038.035-.011c.05-.015.096-.03.146-.044l.022-.007.335-.101.037-.012.132-.04.04-.012.124-.038.053-.016.112-.035.057-.017.11-.034.056-.017.115-.036.05-.015.12-.037.047-.014.132-.042.034-.01.165-.051.024-.008.142-.044.045-.014.12-.037.053-.017.115-.036.05-.016.115-.036.056-.017.11-.035.054-.017.115-.036.051-.017.128-.04.035-.011.147-.047.02-.006.335-.107.028-.009.139-.044.037-.012.125-.04.05-.016.117-.038.05-.016.115-.037.051-.017.12-.038.045-.015.13-.042.034-.011.501-.164.029-.01.133-.043.048-.016.118-.038.048-.016.117-.038.05-.017.118-.039.046-.015.119-.04.049-.016.155-.051.003-.001.34-.113.014-.005.144-.049.05-.016.118-.04.047-.016.114-.038.055-.018.112-.038.052-.018.113-.038.051-.017.124-.042.039-.014.155-.052.007-.003.334-.113.035-.012.127-.044.048-.016.115-.04.053-.018.114-.039.048-.017.114-.039.055-.019.115-.04.045-.015.122-.043.044-.015.328-.114.018-.006.146-.051.037-.013.124-.044.048-.016.12-.042.045-.016.112-.04.058-.02.109-.039.053-.018.114-.04.047-.017.134-.048.028-.01c.113-.04.219-.077.331-.118l.016-.005.148-.053.035-.012.125-.045.05-.018.11-.04.059-.02.107-.04.05-.017.118-.043.046-.016.13-.047.03-.01.142-.053.023-.008.328-.12.034-.011.127-.047.052-.019.105-.038.062-.023.105-.038.055-.02.107-.04.055-.02.11-.04.053-.02.123-.045.035-.014.153-.056.01-.004.166-.061.004-.002.158-.059.03-.011.131-.049.046-.017.116-.043.047-.018.118-.044.044-.017.125-.046.034-.013.134-.05.03-.012.142-.053.02-.008.332-.126.156-.06.05-.018.11-.042.056-.021.107-.04.051-.02.115-.044.047-.019.113-.043.051-.02.112-.042.05-.02.131-.05.026-.01.325-.125.036-.014.127-.05.037-.014.124-.048.045-.018.112-.044.056-.021.1-.04.064-.024.103-.04.053-.021.115-.045.045-.018.126-.05.035-.013.158-.063.038-.015.124-.049.046-.018.112-.044.058-.023.102-.04.06-.024.098-.04.062-.024.102-.04.057-.023.106-.042.053-.022.118-.047.04-.016.323-.13.012-.004.144-.058.054-.022.105-.043.056-.022.102-.041.064-.026.094-.038.064-.026.096-.04.063-.025.102-.042.054-.022.105-.043.057-.023.316-.129.03-.013.129-.052.046-.02.11-.045.056-.023.106-.044.052-.021.106-.044.054-.022.108-.045.052-.022.102-.042.06-.025.11-.046.046-.019.315-.131.05-.021.106-.044.063-.027.096-.04.058-.025.1-.042.064-.027.09-.038.07-.029.084-.036.075-.031.09-.039.062-.026.113-.048.045-.019.158-.067.009-.004.146-.062.046-.02.115-.049.047-.02.107-.046.057-.024.102-.044.057-.024.1-.043.058-.026.107-.045.049-.021.118-.051.038-.017.32-.138.013-.006.142-.062.044-.019.112-.048.054-.024.102-.045.057-.024.098-.043.064-.028.095-.042.058-.025.107-.047.05-.022.135-.06.017-.007.32-.142.025-.01.129-.057.05-.022.108-.049.054-.023.097-.044.065-.028.094-.042.06-.027.097-.043.059-.027.109-.048.045-.02.119-.054.038-.017.313-.14.046-.021.108-.049.057-.026.097-.043.063-.029.099-.045.05-.022.108-.05.051-.023.104-.047.053-.024.1-.045.059-.027.307-.14.034-.016.122-.056.05-.023.102-.047.06-.027.1-.046.054-.025.098-.046.06-.027.099-.046.056-.026.1-.046.054-.025.119-.055.035-.016.314-.146.02-.01.134-.062.044-.02.11-.052.052-.025.102-.047.056-.026.102-.048.05-.024.104-.049.056-.026.105-.05.046-.021.117-.056.04-.018.307-.146.045-.02.112-.054.046-.022.108-.051.049-.024.108-.051.048-.023.106-.05.05-.025.108-.051.047-.023.119-.057.032-.015.143-.069.013-.006.156-.075.028-.013.125-.061.045-.022.111-.054.048-.023.105-.05.052-.026.102-.05.054-.026.104-.05.046-.023.115-.055.04-.02.119-.058.036-.018.132-.064.023-.011.157-.077.004-.002.145-.071.048-.024.107-.053.05-.024.101-.05.054-.026.104-.052.05-.024.1-.05.055-.027.105-.052.047-.023.115-.058.037-.018.308-.153.032-.017.122-.06.037-.019.116-.058.045-.023.108-.053.048-.025.106-.053.048-.024.11-.055.042-.022.11-.055.045-.023.136-.068.013-.007.314-.159.013-.007.133-.067.05-.025.104-.053.048-.025.104-.053.05-.026.103-.052.053-.027.094-.048.06-.031.1-.051.05-.026.136-.07.012-.006.156-.08.012-.006.138-.071.042-.022.112-.058.042-.022.108-.056.05-.026.101-.052.053-.028.095-.05.06-.03.102-.053.044-.023.117-.061.036-.018.134-.07.018-.01.148-.078.05-.026.102-.053.055-.03.093-.048.064-.033.088-.047.062-.033.086-.045.065-.034.092-.049.056-.03.094-.049.058-.03.107-.057.04-.022.3-.16.043-.022.11-.059.045-.024.106-.056.047-.025.101-.055.058-.03.09-.05.058-.03.094-.05.058-.031.099-.054.048-.026.1-.054.054-.029.146-.078.029-.016.117-.063.058-.032.093-.05.065-.036.077-.041.077-.042.074-.04.072-.04.077-.042.07-.037.084-.046.063-.035a7.09 7.09 0 0 1 .15-.081l.107-.06.039-.02.149-.082.028-.016.119-.065.053-.03.093-.05.063-.035.089-.05.056-.03.09-.05.063-.035.089-.05.057-.03.091-.051.06-.034.105-.058.039-.021.135-.076.015-.008c.052-.03.096-.054.148-.082l.051-.03.092-.05.068-.038.084-.047.061-.035.083-.047.066-.036.086-.049.06-.033.092-.052.053-.03.109-.06.038-.022.118-.067.031-.018.295-.167.052-.03.096-.054.054-.03.093-.053.06-.035.087-.049.06-.034.087-.05.063-.036.086-.05.059-.032.09-.052.059-.034.097-.056.048-.027.119-.068.087-.05.085-.05.06-.035.084-.047.065-.038.086-.05.06-.035.082-.047.067-.039.082-.047.065-.038.08-.047.064-.037.088-.05.06-.035.1-.06.044-.024.144-.084.044-.026.103-.06.054-.032.09-.053.06-.035.087-.05.062-.037.084-.05.06-.035.088-.052.06-.035.086-.05.06-.036.087-.052.06-.035.288-.17.04-.024.105-.063.054-.032.09-.053.06-.036.086-.052.061-.036.081-.048.065-.04.083-.049.062-.037.083-.05.062-.036.09-.054.056-.034.12-.072.079-.048.083-.05.066-.04.08-.047.07-.043.071-.043.073-.044.071-.043.075-.045.07-.042.07-.044.073-.043.076-.047.062-.038.079-.047.066-.04.142-.087.073-.045.072-.044.069-.042.075-.046.07-.043.072-.044.07-.043.07-.043.078-.048.067-.041.07-.043.076-.047.068-.042.074-.046.072-.044.07-.043.09-.056.08-.05.11-.067.064-.04.08-.05.058-.036.087-.054.064-.04.074-.046.075-.046.062-.04.085-.052.057-.036.079-.049.069-.043.075-.047.064-.04.077-.048.051-.033.164-.103.063-.04.07-.044.07-.043.076-.049.065-.04.08-.051.058-.037.082-.052.064-.04.076-.048.062-.04.08-.05.061-.04.08-.05.065-.041.074-.048.097-.06.13-.085.047-.03.088-.055.054-.035.082-.052.057-.037.087-.056.053-.034.082-.052.062-.04.077-.05.068-.044.07-.045.069-.044.077-.05.059-.038.078-.05.135-.088.06-.039.082-.053.069-.044.069-.045.073-.048.072-.046.064-.042.078-.051.062-.04a8.19 8.19 0 0 0 .084-.055l.057-.037.079-.052.066-.043.07-.046.071-.047.081-.053.104-.068c.025-.016.063-.04.087-.057l.08-.053.06-.038.076-.051.066-.044.068-.045.072-.047.073-.048.064-.043.076-.05.062-.04.079-.053.064-.042.072-.048.066-.044.077-.051.009-.006.231-.154.026-.017.084-.056.058-.04.082-.054.053-.035.084-.057.056-.037.084-.056.05-.034.087-.058.055-.037.083-.056.047-.032.093-.062.025-.017.48-.324.03-.021.096-.065.044-.03.087-.059.05-.034.09-.06.047-.033.086-.058.054-.037.084-.057.058-.04.076-.051.06-.041.18-.123.03-.022.085-.058.05-.034.082-.056.058-.04.081-.056.052-.036.084-.058.056-.039.08-.054.057-.04.08-.055.058-.04.08-.056.04-.028.462-.32.032-.022.092-.065.045-.03.088-.062.05-.035.08-.056.06-.042.08-.056.051-.036.084-.059.048-.033.091-.064.03-.02.341-.242.023-.016.096-.067.04-.028.084-.06.055-.039.081-.057.052-.037.084-.06.05-.035.087-.062.043-.03.092-.066.04-.029.097-.068.013-.01.324-.23.058-.042.076-.054.059-.042.076-.055.059-.043.079-.056.054-.04.082-.058.049-.035.09-.065.038-.027.095-.069.033-.024.46-.332.031-.024.095-.068.038-.028.091-.066.044-.032.092-.067.036-.027.096-.07.04-.028.092-.068.04-.029.093-.068.032-.023.462-.34.026-.019.103-.075.028-.021.1-.074.032-.024.1-.073.031-.024.096-.07.04-.03.096-.071.023-.017.109-.08.005-.004.483-.36.026-.02.104-.077.024-.018.1-.075.037-.027.094-.07.034-.026.098-.074.028-.021.105-.079.015-.011.597-.45.03-.022.1-.076.03-.023.094-.072.038-.029.096-.072.03-.024.098-.074.031-.024c.241-.184.474-.361.714-.546l.027-.02.096-.074.035-.026.093-.072.038-.03.094-.072.03-.023.1-.077.026-.02.104-.08.01-.009c.157-.12.318-.246.475-.367l.021-.017.093-.072.04-.031.09-.07.039-.03.09-.07.039-.03c.03-.025.061-.05.092-.073l.036-.028.09-.07.041-.033.578-.453.016-.013.1-.079.032-.026.094-.074.034-.027.092-.071.04-.033.09-.071.032-.025.1-.08.014-.01.477-.38.007-.006.097-.077.036-.029.086-.069.042-.033.094-.075.029-.024.097-.077.03-.025.099-.079.023-.018.105-.085.005-.004.48-.388.01-.007.109-.088.016-.014.104-.084.025-.02.1-.082.025-.02.1-.082.025-.02.107-.086.003-.003c.204-.166.4-.325.603-.492l.007-.007c.036-.029.075-.06.11-.09l.017-.013.103-.085.024-.02.102-.084.02-.017.109-.089.007-.006c.244-.2.475-.392.718-.594l.01-.008.11-.091.014-.013.106-.087.02-.018.105-.087.017-.014.105-.088.021-.018c.238-.198.47-.394.707-.593l.005-.004.111-.094.014-.012.105-.088.02-.017.108-.092.007-.005.115-.097.007-.007.593-.504.004-.003.1-.085.029-.025.095-.081.026-.022.098-.084.025-.022.1-.085.019-.016.103-.09.017-.014.704-.607.118-.103.004-.002.112-.098.012-.01.112-.098.002-.001c.273-.237.552-.481.823-.72l.013-.01.107-.094.013-.012.11-.096.008-.007q.466-.41.932-.825l.015-.013.104-.093.016-.014.102-.091.02-.017c.308-.276.614-.55.922-.828l.01-.009.112-.101.001-.001q1.114-1.006 2.214-2.024a234.236 234.236 0 0 0 72.014-133.092 42.705 42.705 0 0 0-42.13-49.735z" style="fill:#005eee"/><rect x="82.745" y="132.732" width="90.51" height="203.869" rx="45.255" ry="45.255" transform="rotate(-45 128 234.667)" style="fill:#005eee"/><path d="m57.205 206.539 77.048 77.047c16.739 16.74 44.036 19.948 62.359 4.96a45.264 45.264 0 0 0 3.466-67.135l-63.242-63.242a30.171 30.171 0 0 1 0-42.666h.001a30.17 30.17 0 0 1 42.666 0l109.791 109.791a32 32 0 0 1 9.373 22.627v82.746a32 32 0 0 0 64 0V311.92a31.998 31.998 0 0 1 9.371-22.626l63.465-63.466A42.67 42.67 0 0 0 448 195.658v-59.913a41.525 41.525 0 0 0-8.643-25.948A234 234 0 0 0 256 21.333c-90.22 0-168.44 50.966-207.683 125.643a50.788 50.788 0 0 0 8.888 59.563z" style="fill:#4cc66e"/><path d="M158.17 64a72.37 72.37 0 0 0-51.506 21.334 73.204 73.204 0 0 0-8.643 10.416 21.333 21.333 0 1 0 35.22 24.082 30.157 30.157 0 0 1 1.89-2.48h.002l.03-.036.03-.035.003-.003.027-.032.004-.005.025-.03.006-.007.026-.03.005-.005.092-.107.008-.009.022-.025.012-.014.018-.02.015-.018.015-.017.016-.018.014-.015.018-.022.01-.011.02-.023.01-.011.022-.024.007-.009.023-.025.007-.008c.067-.075.133-.149.202-.224l.028-.03.003-.005.058-.064c.141-.153.283-.304.427-.455q.121-.128.245-.254l.005-.005.026-.027.005-.006.026-.026.008-.008.024-.024.008-.008.023-.024.011-.011.022-.022.011-.011.02-.021.017-.017.016-.016.033-.032a30.171 30.171 0 0 1 42.667 0l7.756 7.756a21.333 21.333 0 1 0 30.17-30.17l-7.757-7.757A72.358 72.358 0 0 0 158.17 64zM65.747 160.087a21.347 21.347 0 0 0-19.888 29.045 50.234 50.234 0 0 0 9.84 15.834l.001.002q.196.214.395.426l.004.003.167.177.008.009.05.051.005.007.112.117.003.003.052.054.009.01.052.053.002.003.112.115.01.01.044.046.013.013.11.113.008.008.047.048.012.012.047.047.008.01.056.056.006.005.047.048.016.017.04.04.016.016.054.053 77.048 77.048a49.75 49.75 0 0 0 34.878 14.574 21.333 21.333 0 0 0 0-42.667 7.163 7.163 0 0 1-4.708-2.076l-77.048-77.049a7.615 7.615 0 0 1-1.73-2.648 21.339 21.339 0 0 0-19.898-13.633z" style="fill:#14a142"/><rect x="55.163" y="272.157" width="60.34" height="95.686" rx="30.17" ry="30.17" transform="rotate(-45 85.333 320)" style="fill:#4cc66e"/><path d="M95.522 291.94a10.667 10.667 0 0 0-7.542 18.21l16.098 16.098a8.837 8.837 0 0 1-6.248 15.085l-.635-.022a10.783 10.783 0 0 0-.383-.007 11.135 11.135 0 0 0-11.028 10.272 10.211 10.211 0 0 0 8.734 10.91q1.464.16 2.937.178h.022l.032.001H97.581l.036.001H97.83a30.165 30.165 0 0 0 21.333-51.503l-.691-.691-1.824-1.824-2.578-2.578-2.956-2.956-2.956-2.955-2.578-2.579-1.824-1.823-.691-.692a10.634 10.634 0 0 0-7.543-3.125z" style="fill:#14a142"/><path d="M190.363 444.237a35.631 35.631 0 0 0 41.13-6.674l36.438-46.259a39.135 39.135 0 0 0 9.402-25.446 39.135 39.135 0 0 0-26.759-37.126l-19.081-6.36a46.213 46.213 0 0 0-35.28 2.507 46.212 46.212 0 0 0-25.546 41.334v46.155a35.631 35.631 0 0 0 19.696 31.87z" style="fill:#4cc66e"/><path d="M244.2 327.182a10.668 10.668 0 0 0-3.372 20.788l3 1A17.78 17.78 0 0 1 256 365.858a18.573 18.573 0 0 1-4.827 12.246l-35.484 45.046a14.304 14.304 0 0 1-18.737.04 10.667 10.667 0 0 0-13.945 16.145 35.613 35.613 0 0 0 6.915 4.678l.003.002.05.026.018.009.045.023.02.01.044.023.024.012.04.02.028.014.037.02.034.017.032.015.066.033a35.564 35.564 0 0 0 14.085 3.716q.92.047 1.84.047a35.615 35.615 0 0 0 25.205-10.437l36.438-46.259a39.135 39.135 0 0 0-17.357-62.572l-.126-.042-.005-.002-.064-.021-.003-.001-.035-.012-.004-.001-.036-.012-.008-.003-.017-.006-.02-.007-.006-.001-.018-.006-.005-.002-.006-.002-.032-.01-.001-.001-.012-.004-2.616-.872a10.65 10.65 0 0 0-3.36-.545z" style="fill:#14a142"/><path d="M256 106.667h-.533l-.07.001h-.012l-.208.001h-.156l-.103.002h-.01l-.558.004a42.667 42.667 0 0 0 .964 85.327h.168L256 192a42.668 42.668 0 0 0 .468-85.333H256zM120.924 192.321l-.057.121-.022.046-.035.076-.026.055-.03.065-.028.059-.028.061-.03.064-.005.01-.088.189-.011.024-.04.087-.014.03-.044.094-.004.01-.234.506a42.667 42.667 0 0 0 77.592 35.513l.071-.153.22-.469a42.668 42.668 0 0 0-76.987-36.81l-.2.422z" style="fill:#84d89c"/><circle cx="213.333" cy="362.667" r="21.333" style="fill:#84d89c"/><circle cx="74.667" cy="309.333" r="10.667" style="fill:#84d89c"/><path d="M426.667 106.667A21.333 21.333 0 0 0 405.333 128v67.659l-.001.001-63.464 63.465A74.176 74.176 0 0 0 320 311.921v8.798a21.333 21.333 0 0 0 42.667 0v-8.798a31.997 31.997 0 0 1 9.372-22.627l63.464-63.465A42.668 42.668 0 0 0 448 195.658V128a21.333 21.333 0 0 0-21.333-21.333zM298.888 183.385a21.333 21.333 0 0 0-15.089 36.414l5.495 5.495.036.036.018.019.018.018.02.02.017.016.02.021.015.015.022.023.014.014.022.022.014.014.023.023.013.013.023.025.01.01.026.027.009.009.027.027.007.008a31.975 31.975 0 0 1 3.56 4.39v.002l.025.037.004.006.023.033.006.009.021.032.006.01.022.031.006.01.021.032.007.01.021.032.005.008.023.034.003.005.127.194.005.009.02.03.008.012.019.03.008.013.018.027.01.016.017.027.01.015.017.027.01.017.016.025.013.019.014.023.013.02.015.024.012.02.014.022.015.022.012.021.022.035.005.008.026.042.011.018.017.027.01.015.017.028.01.017.017.027.01.016.016.027.011.018.016.027.01.016.018.028.009.015.019.031.007.012.02.034.006.01.023.038.003.005.161.271.001.001.026.044.001.002.025.044.002.002.025.043.001.003a32.01 32.01 0 0 1 2.266 4.768 21.333 21.333 0 0 0 39.905-15.1 74.174 74.174 0 0 0-17.046-26.396l-5.491-5.49a21.266 21.266 0 0 0-15.085-6.25z" style="fill:#14a142"/></svg>